<?xml version="1.0" encoding="utf-8"?>
<!-- Generator: Adobe Illustrator 25.4.1, SVG Export Plug-In . SVG Version: 6.00 Build 0)  -->
<svg version="1.1" id="Capa_1" xmlns="http://www.w3.org/2000/svg" xmlns:xlink="http://www.w3.org/1999/xlink" x="0px" y="0px"
	 viewBox="0 0 227.2 227.2" style="enable-background:new 0 0 227.2 227.2;" xml:space="preserve">
<style type="text/css">
	.st0{fill:#FFFFFF;}
</style>
<path class="st0" d="M175.9,141.5c-13.2,0-25.1,6-33,15.5l-51.2-29.1c1.6-4.5,2.5-9.3,2.5-14.3c0-5-0.9-9.8-2.5-14.3l51.2-29.1
	c7.9,9.5,19.7,15.5,33,15.5c23.6,0,42.9-19.2,42.9-42.9c0-23.6-19.2-42.9-42.9-42.9C152.3,0,133,19.2,133,42.9c0,5,0.9,9.8,2.5,14.3
	L84.3,86.3c-7.9-9.5-19.7-15.5-33-15.5C27.7,70.7,8.5,90,8.5,113.6c0,23.6,19.2,42.9,42.9,42.9c13.2,0,25.1-6,33-15.5l51.2,29.1
	c-1.6,4.5-2.5,9.3-2.5,14.3c0,23.6,19.2,42.9,42.9,42.9c23.6,0,42.9-19.2,42.9-42.9C218.8,160.7,199.5,141.5,175.9,141.5z M175.9,15
	c15.4,0,27.9,12.5,27.9,27.9c0,15.4-12.5,27.9-27.9,27.9c-15.4,0-27.9-12.5-27.9-27.9C148,27.5,160.5,15,175.9,15z M51.3,141.5
	c-15.4,0-27.9-12.5-27.9-27.9c0-15.4,12.5-27.9,27.9-27.9c15.4,0,27.9,12.5,27.9,27.9C79.2,129,66.7,141.5,51.3,141.5z M175.9,212.2
	c-15.4,0-27.9-12.5-27.9-27.9c0-15.4,12.5-27.9,27.9-27.9c15.4,0,27.9,12.5,27.9,27.9C203.8,199.7,191.3,212.2,175.9,212.2z"/>
</svg>
